<svg width="154" height="48" viewBox="0 0 154 48" fill="none" xmlns="http://www.w3.org/2000/svg">
<g filter="url(#filter0_d_1_278)">
<rect x="2" y="2" width="150" height="40" rx="17" fill="url(#paint0_linear_1_278)"/>
<rect x="1" y="1" width="152" height="42" rx="18" stroke="#D5A5FF" stroke-width="2"/>
</g>
<path d="M69.0563 24.495V27H62.2163V16.5H68.9363V19.005H65.0963V20.55H68.5463V22.92H65.0963V24.495H69.0563ZM76.427 27L74.702 23.775L72.962 27H69.677L72.827 21.54L69.857 16.5H73.112L74.687 19.47L76.277 16.5H79.502L76.547 21.585L79.712 27H76.427ZM80.688 16.5H83.613V27H80.688V16.5ZM93.5288 19.11H90.6638V27H87.7688V19.11H84.9188V16.5H93.5288V19.11Z" fill="url(#paint1_linear_1_278)"/>
<defs>
<filter id="filter0_d_1_278" x="0" y="0" width="154" height="48" filterUnits="userSpaceOnUse" color-interpolation-filters="sRGB">
<feFlood flood-opacity="0" result="BackgroundImageFix"/>
<feColorMatrix in="SourceAlpha" type="matrix" values="0 0 0 0 0 0 0 0 0 0 0 0 0 0 0 0 0 0 127 0" result="hardAlpha"/>
<feOffset dy="4"/>
<feComposite in2="hardAlpha" operator="out"/>
<feColorMatrix type="matrix" values="0 0 0 0 0.490719 0 0 0 0 0.168627 0 0 0 0 0.772549 0 0 0 1 0"/>
<feBlend mode="normal" in2="BackgroundImageFix" result="effect1_dropShadow_1_278"/>
<feBlend mode="normal" in="SourceGraphic" in2="effect1_dropShadow_1_278" result="shape"/>
</filter>
<linearGradient id="paint0_linear_1_278" x1="77" y1="2" x2="77" y2="42" gradientUnits="userSpaceOnUse">
<stop stop-color="#8544F4"/>
<stop offset="1" stop-color="#752CC2"/>
</linearGradient>
<linearGradient id="paint1_linear_1_278" x1="77.5" y1="13" x2="77.5" y2="32" gradientUnits="userSpaceOnUse">
<stop stop-color="#F1E3FB"/>
<stop offset="1" stop-color="#D1B6F3"/>
</linearGradient>
</defs>
</svg>
