<svg width="154" height="48" viewBox="0 0 154 48" fill="none" xmlns="http://www.w3.org/2000/svg">
<g filter="url(#filter0_d_1_335)">
<rect x="2" y="2" width="150" height="40" rx="17" fill="url(#paint0_linear_1_335)"/>
<rect x="1" y="1" width="152" height="42" rx="18" stroke="#1F1F1F" stroke-width="2"/>
</g>
<path d="M45.1645 27.27C42.5995 27.27 40.9345 25.905 40.9345 23.61H43.9195C43.9195 24.36 44.5045 24.735 45.1645 24.735C45.7645 24.735 46.3495 24.405 46.3495 23.835C46.3495 23.175 45.5245 22.98 44.5195 22.74C43.0045 22.365 41.0695 21.9 41.0695 19.515C41.0695 17.445 42.5845 16.26 45.0595 16.26C47.5795 16.26 49.0345 17.55 49.0345 19.695H46.1245C46.1245 19.02 45.6295 18.705 45.0295 18.705C44.5195 18.705 44.0245 18.93 44.0245 19.425C44.0245 20.025 44.8195 20.22 45.7945 20.475C47.3545 20.865 49.3645 21.39 49.3645 23.775C49.3645 26.07 47.6095 27.27 45.1645 27.27ZM53.758 24.495H57.733V27H50.878V16.5H57.598V19.005H53.758V20.55H57.208V22.92H53.758V24.495ZM67.2638 16.5V19.11H64.4138V27H61.5038V19.11H58.6538V16.5H67.2638ZM76.4337 16.5V19.11H73.5837V27H70.6737V19.11H67.8237V16.5H76.4337ZM77.7286 27V16.5H80.6686V27H77.7286ZM89.2645 16.5H92.0695V27H89.6695L85.4995 21.315V27H82.6945V16.5H85.2295L89.2645 22.02V16.5ZM98.9209 21.39H104.681C104.681 24.825 102.431 27.27 99.1459 27.27C95.9359 27.27 93.5509 24.96 93.5509 21.765C93.5509 18.57 95.8909 16.245 99.1159 16.245C101.876 16.245 104.126 17.97 104.576 20.4H101.531C101.156 19.515 100.211 18.945 99.1459 18.945C97.5709 18.945 96.5209 20.085 96.5209 21.765C96.5209 23.43 97.5559 24.57 99.1459 24.57C100.256 24.57 101.201 24.03 101.531 23.22H98.9209V21.39ZM109.852 27.27C107.287 27.27 105.622 25.905 105.622 23.61H108.607C108.607 24.36 109.192 24.735 109.852 24.735C110.452 24.735 111.037 24.405 111.037 23.835C111.037 23.175 110.212 22.98 109.207 22.74C107.692 22.365 105.757 21.9 105.757 19.515C105.757 17.445 107.272 16.26 109.747 16.26C112.267 16.26 113.722 17.55 113.722 19.695H110.812C110.812 19.02 110.317 18.705 109.717 18.705C109.207 18.705 108.712 18.93 108.712 19.425C108.712 20.025 109.507 20.22 110.482 20.475C112.042 20.865 114.052 21.39 114.052 23.775C114.052 26.07 112.297 27.27 109.852 27.27Z" fill="url(#paint1_linear_1_335)"/>
<defs>
<filter id="filter0_d_1_335" x="0" y="0" width="154" height="48" filterUnits="userSpaceOnUse" color-interpolation-filters="sRGB">
<feFlood flood-opacity="0" result="BackgroundImageFix"/>
<feColorMatrix in="SourceAlpha" type="matrix" values="0 0 0 0 0 0 0 0 0 0 0 0 0 0 0 0 0 0 127 0" result="hardAlpha"/>
<feOffset dy="4"/>
<feComposite in2="hardAlpha" operator="out"/>
<feColorMatrix type="matrix" values="0 0 0 0 0.141667 0 0 0 0 0.141667 0 0 0 0 0.141667 0 0 0 1 0"/>
<feBlend mode="normal" in2="BackgroundImageFix" result="effect1_dropShadow_1_335"/>
<feBlend mode="normal" in="SourceGraphic" in2="effect1_dropShadow_1_335" result="shape"/>
</filter>
<linearGradient id="paint0_linear_1_335" x1="77" y1="2" x2="77" y2="42" gradientUnits="userSpaceOnUse">
<stop stop-color="#494949"/>
<stop offset="1" stop-color="#2F2F2F"/>
</linearGradient>
<linearGradient id="paint1_linear_1_335" x1="77.5" y1="13" x2="77.5" y2="32" gradientUnits="userSpaceOnUse">
<stop stop-color="#6A6A6A"/>
<stop offset="1" stop-color="#8E8E8E"/>
</linearGradient>
</defs>
</svg>
