<svg width="154" height="48" viewBox="0 0 154 48" fill="none" xmlns="http://www.w3.org/2000/svg">
<g filter="url(#filter0_d_1_272)">
<rect x="2" y="2" width="150" height="40" rx="17" fill="url(#paint0_linear_1_272)"/>
<rect x="1" y="1" width="152" height="42" rx="18" stroke="#D5A5FF" stroke-width="2"/>
</g>
<path d="M48.4426 27.27C45.0676 27.27 42.6676 24.96 42.6676 21.765C42.6676 18.555 45.0676 16.245 48.4426 16.245C51.8176 16.245 54.2176 18.54 54.2176 21.765C54.2176 24.975 51.8176 27.27 48.4426 27.27ZM48.4426 24.585C50.0476 24.585 51.2026 23.4 51.2026 21.765C51.2026 20.115 50.0476 18.93 48.4426 18.93C46.8526 18.93 45.6676 20.13 45.6676 21.765C45.6676 23.385 46.8526 24.585 48.4426 24.585ZM60.1581 16.5C62.3931 16.5 64.0581 18.105 64.0581 20.295C64.0581 22.5 62.3931 24.105 60.1581 24.105H58.5831V27H55.6881V16.5H60.1581ZM59.8131 21.585C60.5781 21.585 61.0731 21.06 61.0731 20.31C61.0731 19.56 60.5781 19.035 59.8131 19.035H58.5831V21.585H59.8131ZM73.2311 16.5V19.11H70.3811V27H67.4711V19.11H64.6211V16.5H73.2311ZM74.526 27V16.5H77.466V27H74.526ZM84.7268 27.27C81.3518 27.27 78.9518 24.96 78.9518 21.765C78.9518 18.555 81.3518 16.245 84.7268 16.245C88.1018 16.245 90.5018 18.54 90.5018 21.765C90.5018 24.975 88.1018 27.27 84.7268 27.27ZM84.7268 24.585C86.3318 24.585 87.4868 23.4 87.4868 21.765C87.4868 20.115 86.3318 18.93 84.7268 18.93C83.1368 18.93 81.9518 20.13 81.9518 21.765C81.9518 23.385 83.1368 24.585 84.7268 24.585ZM98.5423 16.5H101.347V27H98.9473L94.7773 21.315V27H91.9723V16.5H94.5073L98.5423 22.02V16.5ZM107.089 27.27C104.524 27.27 102.859 25.905 102.859 23.61H105.844C105.844 24.36 106.429 24.735 107.089 24.735C107.689 24.735 108.274 24.405 108.274 23.835C108.274 23.175 107.449 22.98 106.444 22.74C104.929 22.365 102.994 21.9 102.994 19.515C102.994 17.445 104.509 16.26 106.984 16.26C109.504 16.26 110.959 17.55 110.959 19.695H108.049C108.049 19.02 107.554 18.705 106.954 18.705C106.444 18.705 105.949 18.93 105.949 19.425C105.949 20.025 106.744 20.22 107.719 20.475C109.279 20.865 111.289 21.39 111.289 23.775C111.289 26.07 109.534 27.27 107.089 27.27Z" fill="url(#paint1_linear_1_272)"/>
<defs>
<filter id="filter0_d_1_272" x="0" y="0" width="154" height="48" filterUnits="userSpaceOnUse" color-interpolation-filters="sRGB">
<feFlood flood-opacity="0" result="BackgroundImageFix"/>
<feColorMatrix in="SourceAlpha" type="matrix" values="0 0 0 0 0 0 0 0 0 0 0 0 0 0 0 0 0 0 127 0" result="hardAlpha"/>
<feOffset dy="4"/>
<feComposite in2="hardAlpha" operator="out"/>
<feColorMatrix type="matrix" values="0 0 0 0 0.490719 0 0 0 0 0.168627 0 0 0 0 0.772549 0 0 0 1 0"/>
<feBlend mode="normal" in2="BackgroundImageFix" result="effect1_dropShadow_1_272"/>
<feBlend mode="normal" in="SourceGraphic" in2="effect1_dropShadow_1_272" result="shape"/>
</filter>
<linearGradient id="paint0_linear_1_272" x1="77" y1="2" x2="77" y2="42" gradientUnits="userSpaceOnUse">
<stop stop-color="#8544F4"/>
<stop offset="1" stop-color="#752CC2"/>
</linearGradient>
<linearGradient id="paint1_linear_1_272" x1="77" y1="13" x2="77" y2="32" gradientUnits="userSpaceOnUse">
<stop stop-color="#F1E3FB"/>
<stop offset="1" stop-color="#D1B6F3"/>
</linearGradient>
</defs>
</svg>
