<svg width="154" height="48" viewBox="0 0 154 48" fill="none" xmlns="http://www.w3.org/2000/svg">
<g filter="url(#filter0_d_1_246)">
<rect x="2" y="2" width="150" height="40" rx="17" fill="url(#paint0_linear_1_246)"/>
<rect x="1" y="1" width="152" height="42" rx="18" stroke="#A5F9FF" stroke-width="2"/>
</g>
<path d="M51.344 23.79H50.309V27H47.414V16.5H51.959C52.529 16.5 53.049 16.59 53.519 16.77C53.999 16.95 54.409 17.205 54.749 17.535C55.099 17.865 55.369 18.26 55.559 18.72C55.759 19.17 55.859 19.67 55.859 20.22C55.859 20.87 55.709 21.45 55.409 21.96C55.119 22.46 54.714 22.865 54.194 23.175L56.279 27H53.054L51.344 23.79ZM50.309 21.345H51.629C52.039 21.345 52.354 21.24 52.574 21.03C52.794 20.81 52.904 20.535 52.904 20.205C52.904 19.875 52.794 19.605 52.574 19.395C52.354 19.175 52.039 19.065 51.629 19.065H50.309V21.345ZM64.3908 24.495V27H57.5508V16.5H64.2708V19.005H60.4308V20.55H63.8808V22.92H60.4308V24.495H64.3908ZM69.7815 27.255C69.1415 27.255 68.5565 27.17 68.0265 27C67.5065 26.84 67.0615 26.605 66.6915 26.295C66.3315 25.985 66.0515 25.605 65.8515 25.155C65.6515 24.695 65.5515 24.18 65.5515 23.61H68.5365C68.5365 23.99 68.6565 24.27 68.8965 24.45C69.1465 24.63 69.4365 24.72 69.7665 24.72C70.0765 24.72 70.3515 24.645 70.5915 24.495C70.8315 24.345 70.9515 24.125 70.9515 23.835C70.9515 23.665 70.9015 23.525 70.8015 23.415C70.7115 23.305 70.5815 23.21 70.4115 23.13C70.2515 23.05 70.0615 22.98 69.8415 22.92C69.6215 22.86 69.3865 22.8 69.1365 22.74C68.7565 22.65 68.3615 22.545 67.9515 22.425C67.5515 22.295 67.1815 22.115 66.8415 21.885C66.5015 21.645 66.2215 21.34 66.0015 20.97C65.7915 20.59 65.6865 20.1 65.6865 19.5C65.6865 18.46 66.0365 17.66 66.7365 17.1C67.4465 16.53 68.4265 16.245 69.6765 16.245C70.9465 16.245 71.9215 16.55 72.6015 17.16C73.2915 17.77 73.6365 18.61 73.6365 19.68H70.7415C70.7415 19.35 70.6315 19.105 70.4115 18.945C70.2015 18.785 69.9465 18.705 69.6465 18.705C69.3865 18.705 69.1515 18.765 68.9415 18.885C68.7315 18.995 68.6265 19.175 68.6265 19.425C68.6265 19.575 68.6715 19.7 68.7615 19.8C68.8615 19.9 68.9915 19.99 69.1515 20.07C69.3115 20.14 69.4965 20.21 69.7065 20.28C69.9265 20.34 70.1615 20.4 70.4115 20.46C70.8015 20.56 71.2065 20.68 71.6265 20.82C72.0465 20.95 72.4315 21.135 72.7815 21.375C73.1315 21.615 73.4165 21.925 73.6365 22.305C73.8665 22.685 73.9815 23.175 73.9815 23.775C73.9815 24.345 73.8765 24.85 73.6665 25.29C73.4565 25.72 73.1615 26.085 72.7815 26.385C72.4115 26.675 71.9715 26.89 71.4615 27.03C70.9515 27.18 70.3915 27.255 69.7815 27.255ZM79.9651 27.27C79.2951 27.27 78.6751 27.165 78.1051 26.955C77.5451 26.745 77.0601 26.45 76.6501 26.07C76.2501 25.69 75.9351 25.235 75.7051 24.705C75.4851 24.165 75.3751 23.575 75.3751 22.935V16.5H78.3301V22.89C78.3301 23.4 78.4801 23.81 78.7801 24.12C79.0801 24.42 79.4751 24.57 79.9651 24.57C80.4451 24.57 80.8351 24.42 81.1351 24.12C81.4351 23.81 81.5851 23.4 81.5851 22.89V16.5H84.5401V22.935C84.5401 23.575 84.4251 24.165 84.1951 24.705C83.9751 25.235 83.6601 25.69 83.2501 26.07C82.8501 26.45 82.3701 26.745 81.8101 26.955C81.2501 27.165 80.6351 27.27 79.9651 27.27ZM96.7589 27L95.9339 20.955L93.1589 27.015H92.3039L89.5139 20.955L88.7039 27H85.7789L87.3689 16.5H90.2489L92.7239 22.215L95.2139 16.5H98.1089L99.6689 27H96.7589ZM107.955 24.495V27H101.115V16.5H107.835V19.005H103.995V20.55H107.445V22.92H103.995V24.495H107.955Z" fill="url(#paint1_linear_1_246)"/>
<defs>
<filter id="filter0_d_1_246" x="0" y="0" width="154" height="48" filterUnits="userSpaceOnUse" color-interpolation-filters="sRGB">
<feFlood flood-opacity="0" result="BackgroundImageFix"/>
<feColorMatrix in="SourceAlpha" type="matrix" values="0 0 0 0 0 0 0 0 0 0 0 0 0 0 0 0 0 0 127 0" result="hardAlpha"/>
<feOffset dy="4"/>
<feComposite in2="hardAlpha" operator="out"/>
<feColorMatrix type="matrix" values="0 0 0 0 0.168627 0 0 0 0 0.752418 0 0 0 0 0.772549 0 0 0 1 0"/>
<feBlend mode="normal" in2="BackgroundImageFix" result="effect1_dropShadow_1_246"/>
<feBlend mode="normal" in="SourceGraphic" in2="effect1_dropShadow_1_246" result="shape"/>
</filter>
<linearGradient id="paint0_linear_1_246" x1="77" y1="2" x2="77" y2="42" gradientUnits="userSpaceOnUse">
<stop stop-color="#44EEF4"/>
<stop offset="1" stop-color="#2CB3C2"/>
</linearGradient>
<linearGradient id="paint1_linear_1_246" x1="77.5" y1="13" x2="77.5" y2="32" gradientUnits="userSpaceOnUse">
<stop stop-color="#E3FBF9"/>
<stop offset="1" stop-color="#B6F3E9"/>
</linearGradient>
</defs>
</svg>
