<svg width="154" height="48" viewBox="0 0 154 48" fill="none" xmlns="http://www.w3.org/2000/svg">
<g filter="url(#filter0_d_1_158)">
<rect x="2" y="2" width="150" height="40" rx="17" fill="url(#paint0_linear_1_158)"/>
<rect x="1" y="1" width="152" height="42" rx="18" stroke="#FFA5A5" stroke-width="2"/>
</g>
<path d="M65.0813 24.495H69.0563V27H62.2013V16.5H68.9213V19.005H65.0813V20.55H68.5313V22.92H65.0813V24.495ZM79.697 27H76.427L74.702 23.775L72.947 27H69.662L72.827 21.54L69.842 16.5H73.112L74.687 19.485L76.262 16.5H79.487L76.532 21.6L79.697 27ZM80.673 27V16.5H83.613V27H80.673ZM93.5138 16.5V19.11H90.6638V27H87.7538V19.11H84.9038V16.5H93.5138Z" fill="url(#paint1_linear_1_158)"/>
<defs>
<filter id="filter0_d_1_158" x="0" y="0" width="154" height="48" filterUnits="userSpaceOnUse" color-interpolation-filters="sRGB">
<feFlood flood-opacity="0" result="BackgroundImageFix"/>
<feColorMatrix in="SourceAlpha" type="matrix" values="0 0 0 0 0 0 0 0 0 0 0 0 0 0 0 0 0 0 127 0" result="hardAlpha"/>
<feOffset dy="4"/>
<feComposite in2="hardAlpha" operator="out"/>
<feColorMatrix type="matrix" values="0 0 0 0 0.772549 0 0 0 0 0.168627 0 0 0 0 0.168627 0 0 0 1 0"/>
<feBlend mode="normal" in2="BackgroundImageFix" result="effect1_dropShadow_1_158"/>
<feBlend mode="normal" in="SourceGraphic" in2="effect1_dropShadow_1_158" result="shape"/>
</filter>
<linearGradient id="paint0_linear_1_158" x1="77" y1="2" x2="77" y2="42" gradientUnits="userSpaceOnUse">
<stop stop-color="#F44444"/>
<stop offset="1" stop-color="#C22C2C"/>
</linearGradient>
<linearGradient id="paint1_linear_1_158" x1="77.5" y1="13" x2="77.5" y2="32" gradientUnits="userSpaceOnUse">
<stop stop-color="#FBE3E3"/>
<stop offset="1" stop-color="#F3B6B6"/>
</linearGradient>
</defs>
</svg>
