<svg width="40" height="42" viewBox="0 0 40 42" fill="none" xmlns="http://www.w3.org/2000/svg">
<g opacity="0.5">
<path d="M24.5936 2.56356C21.7618 0.882814 18.2382 0.882812 15.4064 2.56356L10.9 5.23827L6.33037 7.80361C3.45891 9.41563 1.6971 12.4672 1.73678 15.7599L1.79993 21L1.73678 26.24C1.6971 29.5328 3.45891 32.5844 6.33037 34.1964L10.9 36.7617L15.4064 39.4364C18.2382 41.1172 21.7618 41.1172 24.5936 39.4364L29.1001 36.7617L33.6696 34.1964C36.5411 32.5844 38.3029 29.5328 38.2632 26.2401L38.2001 21L38.2632 15.76C38.3029 12.4672 36.5411 9.41563 33.6696 7.80361L29.1 5.23827L24.5936 2.56356Z" fill="#585B7C" stroke="#7474AF" stroke-width="2"/>
<path d="M15.9117 6.06796C18.4314 4.56992 21.5686 4.56992 24.0883 6.06796L27.4534 8.06859L30.8759 9.99323C33.4254 11.4269 34.9892 14.1378 34.9541 17.0625L34.9067 21L34.9541 24.9374C34.9892 27.8622 33.4254 30.573 30.8759 32.0067L27.4534 33.9313L24.0883 35.932C21.5686 37.43 18.4314 37.43 15.9117 35.932L12.5467 33.9313L9.12415 32.0067C6.57463 30.573 5.0108 27.8622 5.04598 24.9374L5.09335 21L5.04598 17.0625C5.0108 14.1378 6.57463 11.4269 9.12415 9.99323L12.5467 8.06859L15.9117 6.06796Z" fill="#272845"/>
</g>
</svg>
