<svg width="40" height="42" viewBox="0 0 40 42" fill="none" xmlns="http://www.w3.org/2000/svg">
<path d="M24.5936 2.56356C21.7618 0.882814 18.2382 0.882812 15.4064 2.56356L10.9 5.23827L6.33037 7.80361C3.45891 9.41563 1.6971 12.4672 1.73678 15.7599L1.79993 21L1.73678 26.24C1.6971 29.5328 3.45891 32.5844 6.33037 34.1964L10.9 36.7617L15.4064 39.4364C18.2382 41.1172 21.7618 41.1172 24.5936 39.4364L29.1001 36.7617L33.6696 34.1964C36.5411 32.5844 38.3029 29.5328 38.2632 26.2401L38.2001 21L38.2632 15.76C38.3029 12.4672 36.5411 9.41563 33.6696 7.80361L29.1 5.23827L24.5936 2.56356Z" fill="url(#paint0_linear_1_111)" stroke="#E39AFB" stroke-width="2"/>
<path d="M15.9117 6.06808C18.4313 4.57004 21.5686 4.57004 24.0883 6.06808L27.4533 8.06871L30.8758 9.99335C33.4254 11.4271 34.9892 14.1379 34.954 17.0627L34.9066 21.0001L34.954 24.9375C34.9892 27.8623 33.4254 30.5731 30.8758 32.0068L27.4533 33.9315L24.0883 35.9321C21.5686 37.4301 18.4313 37.4301 15.9117 35.9321L12.5466 33.9315L9.12409 32.0068C6.57457 30.5731 5.01074 27.8623 5.04592 24.9375L5.09329 21.0001L5.04592 17.0627C5.01074 14.1379 6.57456 11.4271 9.12409 9.99335L12.5466 8.06871L15.9117 6.06808Z" fill="#672F7D"/>
<defs>
<linearGradient id="paint0_linear_1_111" x1="20" y1="1" x2="20" y2="41" gradientUnits="userSpaceOnUse">
<stop stop-color="#E762FC"/>
<stop offset="1" stop-color="#A730D6"/>
</linearGradient>
</defs>
</svg>
